<?xml version="1.0" encoding="UTF-8"?>
<svg id="Capa_1" xmlns="http://www.w3.org/2000/svg" version="1.1" viewBox="0 0 740.51 713.47">
  <!-- Generator: Adobe Illustrator 29.5.1, SVG Export Plug-In . SVG Version: 2.1.0 Build 141)  -->
  <defs>
    <style>
      .st0 {
        opacity: .1;
      }

      .st0, .st1 {
        fill: #01f;
      }
    </style>
  </defs>
  <ellipse class="st0" cx="377.11" cy="356.25" rx="340.16" ry="333.41"/>
  <g>
    <path class="st1" d="M477.05,338.24c-3.6,4.15-5.04,4.44-1.24,9.16,2.74,3.41,10.32,8.89,11.55,12.58,2.97,8.91-7.39,21.94-8.17,31-10.96,3.31-23.02,1.65-33.86,5.68-9.07,3.37-22.06,14.77-20.08,25.43,1.25,6.72,11,5.26,15.33,8.12,6.31,4.17,9.14,13.75,7.65,20.97-.57,2.78-2.87,5.48-2.97,7.82-.29,6.87,16.87,19.48,21.84,24.47,23.33,23.42,63.02,66.01,74.38,96.5,5.26,14.14,2.94,16.43-8.42,25.07-32.59,24.76-101.85,45.68-142.45,50.57-61.1,7.36-130.88-18.52-180.08-53.66-14.05-10.03-40.25-29.03-42.01-47.13-1.87-19.28,6.64-21.83,13.51-36.74,5.52-11.96,7.81-25.68,15.69-36.58s18.8-22,27.35-33.64c12.85-17.5,39.83-54.48,46.16-73.81,1.52-4.65,2.48-12.36,5.28-16.16,1.82-2.47,8.63-6.37,9.17-8.98.84-4.12-10.27-11-12.97-14.22-6.71-8.02-4.81-18.58-7.5-28.02-2.31-8.08-8.14-15.63-11.24-23.62-11.94-30.84-12.78-85.73.42-116.18,12.12-27.96,41.26-40.41,66.04-54.6,10.64-6.1,22.8-16.5,35.38-17.57,13.81-1.17,60.84,4.33,73.2,9.96,5.36,2.44,10.06,7.1,15.84,9.63,6.71,2.93,13.65,4.12,20.34,7.81,12.33,6.8,30.86,24.41,24.26,39.91-2.52,5.93-14.16,16.7-14.03,21.5,2.86,7.75,4.87,15.95,7.96,23.6,4.39,10.86,9.21,13.07,7.43,26.64-.82,6.26-5.14,8.19-3.8,15.98.54,3.11,4.74,10.51,6.43,13.68,3.58,6.73,17.62,27.24,17.57,33.41-.05,5.72-10.96,11.45-15.87,11.68-2.61.12-7.58-2.01-9.66.33-3.01,3.38-1.35,17.92-3.33,23.48-1.09,3.07-3.49,4.08-5.11,5.95Z"/>
    <path class="st1" d="M374.28,71.93c2.9-3.76,3.11-9.67,4.85-14.25,7.36-19.45,11.87,7.21,12.58,14.25.95-.08,1.05-.99,1.36-1.65,1.91-4.15,3.94-14.37,6.08-17.38.78-1.1,2.03-1.79,2.96-.42,1.86,2.74-2.48,16.28-3.69,19.8-1.38,4.01-3.01,12.62-8.59,9.55-1.48-6.58-2.99-13.2-4.75-19.71-.14-.51.24-2.22-1.08-1.58-2.97,1.44-4.51,22.01-10.7,21.47-1.21-.11-1.75-.86-2.21-1.88-1.76-3.9-5.26-21.06-5.27-25.41,0-2.44.53-4.6,3.46-4.06,1.5.27,4.09,18.45,5,21.27Z"/>
    <path class="st1" d="M540.31,470.2c23.21-3.96,21.03,35.63,2.49,36.05-17.94.41-18.16-33.38-2.49-36.05ZM541.65,475.53c-6.54,1.47-8.09,20.38-1.4,23.91,11.55,6.09,14.27-26.79,1.4-23.91Z"/>
    <path class="st1" d="M569.8,470.2c23.94-4.07,20.87,35.31,3.16,36.05s-18.29-33.48-3.16-36.05ZM571.13,475.53c-6.67,1.5-7.68,19.83-1.1,23.6,11.95,6.85,14.35-26.57,1.1-23.6Z"/>
    <path class="st1" d="M112.02,371.65c1.46-.43,14.19-.45,15.93-.12,1.47.28,3.85,2.96,4.42,4.29,2.53,5.82-2.09,7.22-2.09,9.46.49,1.93,2.71,1.89,3.55,3.83,1.45,3.35-.08,10.1-3.53,11.55-1.52.64-14.86.67-17.11.38-1.08-.14-2.11-.26-2.65-1.37s-.69-22.7-.36-25.17c.17-1.31.39-2.42,1.84-2.85ZM123.55,376.43l-6.63-.89v7.38s6.32-.21,6.32-.21c1.43-.05,2.65-1.06,2.97-2.46h0c.41-1.81-.82-3.57-2.66-3.82ZM116.24,388.27l.63,8.42c15.56,2.19,15.37-10.99-.63-8.42Z"/>
    <path class="st1" d="M500.28,504.89c-.49-9.06,10.9-12.43,15.77-18.75,7.48-9.71-6.48-14.34-10.8-5.33-8.26-3.58.04-11.29,6.09-11.5,4.08-.14,11.15,2.66,12.75,6.75,3.78,9.66-5.5,16.9-12.41,21.8l12.71-.31c.21,2.36.87,5.4-.98,7.35h-23.12Z"/>
    <path class="st1" d="M173.21,399.33c-.31,1.5-2.05,2.83-3.67,2.38-.82-.05-1.2-.47-1.64-1.09-2.14-3.03.11-21.85-.7-26.74.11-.83.55-1.66,1.32-2.03,1.21-.59,15.03-.61,17.06-.29,7.9,1.25,6.7,13.91-.34,16.42-.18,2.37,9.55,9.54,5.13,13.76-2.05,1.74-3.81-1.03-4.97-2.52-2.4-3.11-4.85-10.3-9.21-10.94-.89-.13-2.97.14-2.97,1,0,2.7.47,7.79,0,10.05ZM173.21,384.26c3-.16,10.59,1.05,11.39-3.04,1.39-7.16-6.8-5.61-11.39-5.68v8.72Z"/>
    <path class="st1" d="M268.9,68.07c15.18-1.66,25.47,22.04,10.12,30.26-12.53,6.71-24.4-5.97-22.65-18.63.73-5.27,7.28-11.06,12.53-11.63ZM268.87,73.42c-12.89,2.65-4.61,27.14,7.13,20.53,10.03-5.64,3.04-22.63-7.13-20.53Z"/>
    <path class="st1" d="M523.73,109.47c1.74,2.12,3.2,14.21.9,14.77-3.61.88-4.28-.84-4.84-3.79-1.1-5.75.96-13.32-5.11-16.34-3.06,3.03-6.22,14.21-11.08,8.9-.88-3.77,12.95-25.38,14.43-25.5,4.3,2.51,15.76,6.48,16.96,11.71,1.9,8.29-3.88,11.42-11.25,10.26ZM519.08,94.09c.09,2.04-1.75,4.05-1.94,5.83-.4,3.68,9.82,6.67,12.02,3.91,3.47-4.34-6.04-10.48-10.08-9.75Z"/>
    <path class="st1" d="M167.18,142.31c-1.74,1.67,14.27,13.58,11.39,18.09-.94.12-1.79-.05-2.7-.32-3.89-1.13-17.38-16.79-18.04-20.87-.1-.63-.25-1.7.05-2.19,3.89-3.41,23.61,5.3,25.38,3.93l-12.05-15.77,1.09-1.57c.62-.16,1.25-.19,1.89-.09,2.47.39,19.19,19.07,19.12,21.81-.06,2.35-3.08,3.15-5,3.03-3.19-.19-20.26-6.89-21.13-6.06Z"/>
    <path class="st1" d="M295.21,61.23c6.8-1.66,16.2-5.54,22.43-.69,5.3,4.12,7.82,16.92,3.7,22.45-2.68,3.6-16.25,8.49-19.84,5.75-2.35-1.79-5.67-23.34-6.29-27.52ZM306,83.9c18.7,1.07,13.45-26.39-4.09-19.99l4.09,19.99Z"/>
    <path class="st1" d="M243.57,100.08l-6.36,3.22c-5.93-3.65,6.12-9.57,9.03-8.25.67.3,2.15,2.08,2.59,2.8,7.9,12.84-17.04,26.58-26.32,12.24-6.36-9.83-3.84-21.38,7.97-24.78,3.57-1.03,10.1-.72,11.48,3.34,2.34,6.9-6.84.86-8.74.8-16.12-.55-6.24,30.46,8.01,20.02,3.97-2.91,5.28-5.13,2.34-9.38Z"/>
    <path class="st1" d="M571.32,158.05c.84,2.96,8.54,5.89,9.92,1.19,1.25-4.23-4.87-9.47-5.25-14.61-1.04-14.16,19.46-8.63,19.51,4.03,0,1.88-.16,4.68-2.42,5.05-5.53.93-1.5-7.54-3.62-10.47-1.3-1.79-6.33-3.35-7.77-.96-2.61,4.33,12.46,18.19,2.29,23.06-9.02,4.31-20.06-4.89-18.66-13.96.64-4.12,5.99-5.48,5.99-3.39,0,2.32-.47,8.38,0,10.05Z"/>
    <path class="st1" d="M161.82,371.52v4.02h-15.08c-1.91,1.77-.7,4.98-1.01,7.37h11.06c.76,0,4.35,2.39,4.34,3.02-3.95,3.66-10.39,3.22-15.4,2.34.38,2.78-1.01,6.58,1,8.71h14.74c.45,0,1.41,1.51.91,2.24-.43,1.04-1.18,1.56-2.27,1.77-2.61.49-14.6.42-17.44.05-2.22-.29-2.73-.82-3.02-3.02-.34-2.59-.21-23.89.38-25.15.15-.32,1.21-1.35,1.33-1.35h20.44Z"/>
    <path class="st1" d="M420.52,67.91c4.91.57,14.56-.84,14.74,6.03l-16.08-2.01-.35,8.05c1.55,2.57,15.26,1.12,16.35,5.12l-.57,1.93c-1.66,1.1-18.49-1.69-20.62-2.87-.63-.35-1.13-.49-1.41-1.27-.86-2.5,3.63-25.59,5.64-26.98,2.22-1.54,13.99.67,17.04,1.62,1.46.46,5.36,1.41,3.73,3.72-1.85,2.63-13.59-1.05-16.75-1.3-1.47.35-1.29,6.39-1.73,7.96Z"/>
    <path class="st1" d="M551.02,108.25c6.61-1.96,2.22,6.12.62,8.67-2.98,4.75-13.97,13.72-5.76,18.99,10.41,6.67,14.44-14.68,23.03-16.35.69.16,1.5,1.68,1.57,2.4.36,3.53-12.08,18.49-15.41,19.83-6.6,2.65-18.02-4.44-17.95-11.9.03-2.98,11.32-20.88,13.91-21.64Z"/>
    <path class="st1" d="M596.45,476.74c-.93.04-2.02,1.06-4.01.68-3.46-.65-2.83-6.69.67-7.37,2.29-.44,17.09-.43,19.4,0,1.74.33,2.27,1.3,2.42,2.99.68,7.91-15.85,22.3-13.45,31.83-2.27.34-6.34,1.88-7.25-1.13-1.96-6.52,10.24-20.7,12.6-27.01-3.45.11-6.94-.15-10.39,0Z"/>
    <path class="st1" d="M243.49,370.95c2.34,3.68-6.79,12.83-7.66,16.61-.76,3.29.9,16.16-5.23,14.04-2.72-.94-1.34-10.55-2.08-13.35-1.01-3.83-9.55-11.98-8.35-15.63l3.88-1.71c2.05,3.32,3.95,7.84,6.23,10.9.43.58.63,1.32,1.56,1.11,2.61-.66,6.31-15.24,11.65-11.97Z"/>
    <path class="st1" d="M622.25,179.16c-4.4,1.93-6.88-6.67-9.58-5.95-4.51,2.93-11.47,11.66-16.05,13.49-1.56.62-3.1.62-4.74.54-.52-.13-1-1.42-.98-1.83.17-4.17,15.95-13.47,19.23-16.63,0-1.35-7.91-7.56-4.19-9.66,2.99-.93,7.13,4.85,8.93,7,1.36,1.63,9.03,11.46,7.39,13.05Z"/>
    <path class="st1" d="M93.45,401.01h-20.11c-.27-1.58-1.21-2.66-1.38-4.36-.71-6.91.84-15.51.16-22.62,1.09-5.24,6.59-2.5,6.59-.84v22.12c3.8,3.72,9.05,0,13.65,1.1,1.67.55,1.02,3.15,1.1,4.6Z"/>
    <path class="st1" d="M504.22,80.05l.08,3.94-9.95-1.91c-1.5.95-5.75,17.14-8.23,20.25-.79.99-3.11,2.73-4.28,1.84-1.7-1.66-1.54-3.01-1.02-5.07,1.72-6.82,6.49-12.84,8.77-19.42l-7.8-3.71,1.04-3.76c2.23-1.59,17.71,7.64,21.39,7.84Z"/>
    <path class="st1" d="M218.78,371.52l-.65,4.41c-2.12-.35-9.4-1.05-9.4,1.96v22.79c0,1-3.94,1.89-4.6-.1l-.86-23.6-8.55-1.51-.07-3.95h24.13Z"/>
    <path class="st1" d="M100.48,370.34c2.04.88,3.43,1.86,3.73,4.16.49,3.75.59,20.7-.05,24.15-.73,3.94-5.93,3.97-6.67,0-.58-3.12.09-8.57.01-12.07-.11-5.15-2.38-12.79,2.98-16.23Z"/>
    <path class="st1" d="M162.1,166.15c1.19,1.45,7.26,8.04,1.45,7.65-2.51-.17-10.89-7.59-13.14-9.71-1.58-1.48-14.18-12.89-5.75-12.41,3.67.21,14.8,11.28,17.43,14.47Z"/>
    <path class="st1" d="M377.11,693.68c-90.85,0-176.27-34.96-240.52-98.44-64.25-63.49-99.64-147.89-99.64-237.68s35.39-174.19,99.64-237.68C200.83,56.4,286.25,21.44,377.11,21.44s176.27,34.96,240.52,98.44c64.25,63.49,99.64,147.89,99.64,237.68s-35.39,174.2-99.64,237.68c-64.25,63.48-149.66,98.44-240.52,98.44ZM377.11,25.47c-89.79,0-174.2,34.55-237.69,97.28-63.48,62.72-98.44,146.12-98.44,234.82s34.96,172.09,98.44,234.82c63.49,62.73,147.9,97.28,237.69,97.28s174.2-34.55,237.69-97.28c63.48-62.72,98.44-146.12,98.44-234.82s-34.96-172.09-98.44-234.82c-63.49-62.73-147.9-97.28-237.69-97.28Z"/>
    <path class="st1" d="M377.11,681.31c-87.51,0-169.78-33.67-231.67-94.82-61.89-61.15-95.97-142.45-95.97-228.93s34.08-167.78,95.97-228.93c61.88-61.14,144.16-94.82,231.67-94.82s169.79,33.67,231.67,94.82c61.89,61.15,95.97,142.45,95.97,228.93s-34.08,167.78-95.97,228.93c-61.88,61.14-144.16,94.82-231.67,94.82ZM377.11,37.84c-86.44,0-167.71,33.26-228.84,93.65-61.12,60.39-94.78,140.67-94.78,226.07s33.66,165.68,94.78,226.07c61.12,60.39,142.39,93.65,228.84,93.65s167.71-33.26,228.84-93.65c61.12-60.39,94.77-140.67,94.77-226.07s-33.66-165.68-94.77-226.07c-61.12-60.39-142.39-93.65-228.84-93.65Z"/>
  </g>
</svg>