<?xml version="1.0" encoding="UTF-8"?>
<svg id="Capa_1" xmlns="http://www.w3.org/2000/svg" version="1.1" viewBox="0 0 3972.52 5052.87">
  <!-- Generator: Adobe Illustrator 29.5.1, SVG Export Plug-In . SVG Version: 2.1.0 Build 141)  -->
  <defs>
    <style>
      .st0 {
        fill: none;
        stroke: #01f;
        stroke-linecap: round;
        stroke-linejoin: round;
        stroke-width: 6px;
      }

      .st1 {
        opacity: .1;
      }

      .st2 {
        fill: #01f;
      }
    </style>
  </defs>
  <g>
    <path class="st0" d="M893.19,3006.82c-.35.5-8.66,1.08-11.77,3.22-10.74,7.37-9.77,87.83-16.61,105.17-13.75,141.9-5.46,284.37.11,426.11,5.52,140.46-46.25,259.22-28.15,397.61,9.54,72.95,37.32,151.92,42.34,224.09,6.46,92.79-18.02,190.44-21.59,284.18-2.48,65.28-4.97,156.79,8.23,219.42,6.98,33.07,22.21,49.59,13.75,86.78-8.63,37.93-7.03,35.46-7.99,73.69-.4,15.83-10.33,36.72-10.59,53.7-.37,23.59,16.89,68.63.54,89.02-15.35,19.14-116.58,3.09-143.39,4.34-13.56-6.16-16.8-21.53-25.51-31.33-29.83-33.55-70.14-55.63-76.17-104.98-2.17-17.75-.94-38.38,10.43-52.93,28.55-10.76,57.91-34.45,88.72-26.72,4.81-158.3-57.9-307.98-91.4-461-13.61-62.18-28.41-131.93-36.06-194.85-16.03-131.77,3.48-270.21-.27-404.71-5.53-198.47-37.95-367.81-63.67-561.56-2.98-22.48-7.94-132.8-18.31-141.55-5.92-4.99-23.1-7.98-31.18-9.66-13.55-53.84,3.67-111.02,6.6-164.4,8.97-164,5.21-296.18,36.41-460.93,3.73-19.68,20.88-72.38,20.51-86.41-.25-9.42-11.08-22.17-13.6-32.7-24.55-102.68.16-312.49,6.3-425.42,2.66-49.04,11.2-97.9,7.05-147.44-8.21-1.75-5.7.94-7.98,4.54-9.2,14.47-8.51,47.03-17.2,60.83-6.72,10.67-19.75,5.77-27.73,14.9-6.66,7.63-40.26,90.19-44.69,104.51-8.31,26.81-5.68,40.79-8.99,65.61-14.68,110.14-37.81,223.65-72.04,329.39-27.36,84.51-118.53,268.58-96.77,351.07,4.04,15.33,28.79,48.02,36.96,66.06,23.49,51.83,13.57,65.19,18.28,116.72,2.07,22.69,9.7,47.91,10.75,70.96.51,11.19-4.16,45.22-3.17,49.2,1.38,5.53,30.38,29.78,11.29,41.83-14.58,9.2-84.41-4.29-103.41-9.95-22.36-6.66-44.31-14.86-55.81-36.55-7.44-14.02-28.69-78.71-30.24-94.07-4.69-46.48,19.69-108.25,14.3-152.91-2.01-16.69-14.94-35.19-19.51-51.49-9.95-35.46,5.89-57.51,11.44-91.39,18.31-111.83-1.53-224.31,4.29-336.74,4.56-87.93,14.05-221.69,41.17-303.42,14.48-43.63,32.23-75.48,40.26-123.15,2.3-13.65,10.91-71.35,2.97-78.56-4.71-4.28-21.55-6.72-27.65-16.68-9.13-14.88,11.47-51.54,16.27-69.48,38.34-143.24,23.13-329.25,88.11-458.97,23.17-46.25,104.92-86.87,151.58-111.3,57.25-29.98,148.57-56.98,190.16-101.14,26.92-28.59,49.68-73.64,83.76-93.86,16.52-9.8,29.42-2.07,31.64-25.16,1.94-20.12-8.65-123.64-24.81-131.54-5.67-2.77-13.14-.67-18.65-2.66-24.68-8.92-36.38-46.46-44.29-69.39-5.13-14.86-17.87-53.41-17.69-67.18.23-18.17,21.11-14.45,22.95-24.5-1.58-27.7-13.78-51.86-19.57-78.74-5.78-26.85-10.42-46.68-.04-72.72,11.16-27.99,13.69-32.75,22.11-63.15,16.58-59.86,64.77-85.57,121.3-95.39,26.1-4.53,54.85-15.28,78.07-17.86,98.58-10.94,184.98,53.64,216.18,145.42,21.59,63.51,4.4,122.8-12.26,184.57l20.99-3.28c2.08,4.9,3.03,9.24,2.93,14.66-.32,16.57-18.92,105.8-25.67,120.12-11.67,24.77-34.39,17.19-40.03,31.02-5.46,32.17-15.93,63.82-21.28,95.95-1.6,9.62-7.66,48.06-6.45,54.44,2.43,12.88,18.64,8.24,27.68,11.35,31.05,10.69,63.28,96.64,91.77,117.81,88.99,53.42,190.2,96.4,276.59,153.25,58.54,38.52,83.06,122.87,98.72,189.03,24.82,104.84,31.73,213.26,58.06,318.5,3,12.01,19.02,45.54,10.55,53.59-7.04,6.68-35.79,9.71-38.7,18.14-.53,59.35,9,125.86,30.85,181.34,12.29,31.21,32.32,59.15,44.56,90.43,39.67,101.42,36.77,291.37,34.39,402.86-1.55,72.34-7.54,135.35,4.23,208.62,3.49,21.71,16.85,45.23,12.53,67.5-1.96,10.13-11.47,22.19-13.13,33.02-7.28,47.52,27.68,106.29,34.45,153.38,3.86,26.81-.29,92.88-6.46,119.73-5.82,25.32-60.16,43.11-82.67,59.42-7.26,5.26-17.17,12.95-23.85,18.78-7.53,6.58-10.18,23.77-23.23,12.89-17.12-14.28,8.37-38,14.28-50.26,3-6.22,22.67-48.67,23.12-51.48,3.74-23.18-1.46-118.75-42.34-88.51-17.21,12.73-7.25,23.53-7.04,38.82.21,15.4,2.55,118.46-34.98,97.06-9.41-5.36-20.76-91.93-21.98-107.63-4.19-53.94-3.39-114.1,16.11-164.97,7.22-18.83,20.43-34.1,24.87-53.28,29.89-129.2-83.58-295.44-111.18-418.49-9.01-40.15-6.66-81.54-16.86-121.69-17.12-67.36-20.57-87.44-27.1-157.62-2.78-29.86-38.08-176.62-56.45-192.29-3.57-3.04-11.04-3.49-13.28-6.19-11.24-13.59-5.81-66.15-36.36-66.61-.61,8-5.67,16.5-6.42,24.13-2.23,22.73,4.31,79.25,6.41,105.49,9.44,117.63,47.51,339.66,13.02,446.5-2.46,7.61-12.75,20.2-12.9,26.03-.14,5.66,11.27,39.85,13.09,50.67,14.36,85.55,31.71,186.7,36.44,272.62,4.86,88.39-5.35,183.44-3.69,273.67.33,17.99,9.6,74.17,1.93,86.85-2.66,4.39-13.19,6.47-17.51,14.46-3.96,7.34-6.4,25.23-8.14,34.49-11.53,61.34-13.68,128.16-22.75,190.39-9.91,67.98-25.21,135.42-34.63,203.38-33.97,245.1,12.3,486.81-.71,731.09-33.06,172.16-89.91,337.86-141.82,504.73v99.47l5.83,5.02c15.79,4.84,38.86-25.66,51.31-22.95s12.54,22.33,13.97,23.3,7.97-3.27,11.79-2.64c4.21.7,11.8,8.34,16.94,11.27,3.88,2.21,10.75.98,13.11,2.68,2.79,2.01,2.44,10.78,4.94,14.74,7.48,11.82,7.66,16.8,11.75,23.64,2.52,4.22,10.59,2.84,12.53,12.41,11.49,56.69-69.73,97.69-106.42,124.58-16.54,12.12-34.55,35.06-52.8,43.12-25.05,11.06-109.13,13.51-131.96-.88-22.77-14.35-2.16-89.57-3.61-117.2-.94-17.95-2.21-42.79-3.77-59.83-1.31-14.29-13.79-39.39-13.59-53.77.2-14.42,15.97-47.89,19.84-64.82,39.49-172.97-9.82-346.07,8.49-517.27,12.34-115.37,54.07-222.69,34.28-340.66-7.2-42.93-25.52-87.42-33.83-129.59-19.33-98.19-4.47-220.45-7.85-322.53-3.84-115.99-19.03-232.2-28.62-347.92.67-5.34-3.98-8.11-8.15-10.35-5.21-2.8-11.22-3.74-17.05-2.72l-3.16.56ZM260.83,2786.6c-47.42-2.22-34.57,24.6-28.75,55.39,2.01,10.63-3.45,21.28,5.49,30.03,5.33,5.22,35.94,18.99,41.03,14-7.35-32.6-16.23-65.19-17.77-99.43Z"/>
    <path class="st0" d="M3109.9,4960.68c-5.75,9.31-76.9,8.64-90.6,7.12-39.38-4.39-29.98-23.1-44.97-47.39-6.73-10.91-26.07-23.14-27.85-36.38-1.03-7.63,8.28-36.63,12.23-44.35,5.69-11.1,24.68-24.43,26.36-30.78,2.35-8.91-6.7-45.75-6.82-59.47-.31-36.16,8.15-67.34,2.94-105.87-17.53-129.64-61.85-270.5-83.53-403.16-25.75-157.58-19.57-268.53-14.97-425.25,7.05-240.37-43.38-464.48-100.57-695.48-1.35-22.52-35.56-6.39-41.09-22.85-3.02-8.98.41-26.58-1.02-38.05-11.81-94.52-39.98-188.57-35.06-284.6,8-156.06,53.82-382.1,100.48-531.85,22.39-71.85,71.66-143.28,77.05-214.26,5.36-70.67-38.7-177.19-55.91-249.49-9.02-37.93-11.31-81.28-23.21-118.87-1.04-3.28-6.8-26.74-13.14-20.56-5.5,5.37-6.12,44.49-7.97,54.24-23.51,124.05-47.54,212.07-49.09,341.99-1.11,92.94-33.93,163.17-55.65,253.11-23.59,97.66-71.39,305.21-56.26,398.81,5,30.95,27.18,49.58,38.2,75.47,15.98,37.55,19.01,152.17,16.99,196.07-.51,11.04-7.95,32.75-6.28,41.83,1.97,10.7,46.38,43.81,16.83,54.42l-104.71-51.73c-3.99-4.17-46.6-98.14-47.65-105.1-7.14-47.23,11.15-96.67,7.03-142.02-2.16-23.69-17.66-48.86-18.02-71.08-.55-34.61,12.88-71.55,10.9-113.64-8.06-171.29-28.45-327.7,7.93-499.78,12.69-60.04,39.75-112.39,48.33-175.47,16.36-120.22,8.61-246.93,21.8-365.42,6.4-57.46,24.76-117.52,34.59-175.01,6.68-39.08-5.06-71.31,31.79-96.1,41.93-28.21,143.21-68.06,193.01-84.08,48.32-15.54,122.86-18.78,144.45-72.24,12.26-30.35,11.27-69.17.69-99.78-51.35,8.58-95.99,13.57-118.63-43-40.84-102.05-42.1-308.13,10.61-405.05,69.06-127,207.11-172.62,338.21-107.17,60.49,30.2,99.5,72.72,122.64,136.69,19.69,54.43-1.33,101.55-4.26,157.09-2.47,46.72-7.09,122.38-3.55,166.89,1.32,16.52,12.92,47.97,10.59,60.3-4.51,23.87-68.04,42.87-90.2,40.6-20.62-2.12-53.85-22.53-51.91,12.67,2.73,49.67,24.57,83.63,67.99,106.26,84.37,43.98,184.39,62.03,270.2,102.81,43.39,20.62,75.48,33.29,87.24,83.28,10.56,44.9,25.87,124.73,29.26,169.68,10.61,140.54-3.02,311.26,37.47,445.66,10.89,36.15,31.45,72.98,39.85,109.35,43.6,188.77-8.81,387.28.76,578.29.71,14.12,7.68,29.16,7.34,42.36-.41,15.99-10.68,30.33-13.5,43.6-12.86,60.4,7.36,129.61,9.72,190.71-19.52,23.68-32.24,89.94-48.09,108.39-13.47,15.68-47.28,26.26-68.93,51.86-17.93,21.2-11.93,38.65-49.84,30.12-.4-7.31-.39-14.3,1.68-21.44,3.46-11.94,27.81-31.93-1.69-28.31-6.83-21.24,31.05-37.01,32.14-48.08-16.47-35.42-1.61-74.07-3.58-110.13-2.65-48.42-17.95-89.99,2.11-139.74,11.1-27.53,35.96-42.22,40.1-73.57,3.35-25.36-3.79-88.67-6.84-116.89-17.34-160.38-62.04-318.7-91.99-476.4-10.78-56.76-5.21-112.47-11.42-169.75-9.48-87.33-37.13-173.72-59.99-258-9.15-1.47-5.5.94-7.4,5-7.35,15.79-14.83,53.11-19.96,72.4-18.78,70.59-46.72,170.06-53.88,240.98-10.44,103.39,50.96,194.9,80.23,291.92,56.55,187.43,115.04,470.12,93.37,663.22-6.06,53.99-19.73,107.49-22.79,162.02-20.47,18.71-29.59,19.95-40.06,48.67-43.52,119.35-84.67,306.34-100.1,432.77-23.82,195.13,12.73,392.26-7.57,585.69-15.65,149.01-66.41,299.32-98.49,445.03-13.61,61.8-14.23,75.52-8.47,138.05,3.22,34.98-8.75,48.94-12.93,78.56-5.49,38.98,20.71,26.39,38.31,45.27,4.91,5.26,18.26,35.98,17.69,42.46-1.45,16.39-24.43,21.69-33.54,34.2-8.15,11.19-8.51,31.88-19.85,36.99-18.91,8.52-79.47,7.52-99.25,0-42.83-16.3-17.19-58.82-25.83-91.4-3.61-13.62-25.47-29.67-27.71-46.87-3.9-29.92,11.26-31.96,14.17-50.09,2.62-16.29-2.11-36.41.41-52.88,2.5-16.36,16.09-42.31,20.2-61.51,25.34-118.55-9.2-286.77-13.46-411.04-3.85-112.45,20.64-222.98,14.51-337.78-3.33-62.25-24.37-125.85-28.72-184.43-8.8-118.58,23.45-240.6,28.72-358.8,3.89-87.38,1.49-177.05-10.51-263.34-5.74-7.64-42.55-3.25-45.77,8.12l-14.88,148.53c-9.68,151.75,40.59,315.95,28.51,465.46-4.56,56.49-25.43,116.77-28.69,177.35-4.54,84.17,10.28,156.97,14.32,238.2,7.81,157.08-38.89,323.57-32.11,476.16,2.94,66.17,45.12,134.37,39.42,191.84-2.24,22.58-28.6,47.84-28.6,56.66v90.59ZM2626.58,2875.56l-13.48.35c-4.02,2.41-1.71,41.14-.66,47.55,1.76,10.76,7.28,33.84,21.41,30.07l-7.28-77.96ZM3685.4,2937.55c2.53-11.55,0-39.28,0-53.29,0-1.89-7.75-7.34-10.62-5.31-4.7,10.67-2.18,22.5-4.42,32.9-2.84,13.2-12.79,35.32-13.51,46.94-.34,5.55-.47,6.2,5.38,5.34,6.66-1.88,21.87-20.67,23.17-26.59Z"/>
  </g>
  <g class="st1">
    <path class="st2" d="M893.19,3006.82c-.35.5-8.66,1.08-11.77,3.22-10.74,7.37-9.77,87.83-16.61,105.17-13.75,141.9-5.46,284.37.11,426.11,5.52,140.46-46.25,259.22-28.15,397.61,9.54,72.95,37.32,151.92,42.34,224.09,6.46,92.79-18.02,190.44-21.59,284.18-2.48,65.28-4.97,156.79,8.23,219.42,6.98,33.07,22.21,49.59,13.75,86.78-8.63,37.93-7.03,35.46-7.99,73.69-.4,15.83-10.33,36.72-10.59,53.7-.37,23.59,16.89,68.63.54,89.02-15.35,19.14-116.58,3.09-143.39,4.34-13.56-6.16-16.8-21.53-25.51-31.33-29.83-33.55-70.14-55.63-76.17-104.98-2.17-17.75-.94-38.38,10.43-52.93,28.55-10.76,57.91-34.45,88.72-26.72,4.81-158.3-57.9-307.98-91.4-461-13.61-62.18-28.41-131.93-36.06-194.85-16.03-131.77,3.48-270.21-.27-404.71-5.53-198.47-37.95-367.81-63.67-561.56-2.98-22.48-7.94-132.8-18.31-141.55-5.92-4.99-23.1-7.98-31.18-9.66-13.55-53.84,3.67-111.02,6.6-164.4,8.97-164,5.21-296.18,36.41-460.93,3.73-19.68,20.88-72.38,20.51-86.41-.25-9.42-11.08-22.17-13.6-32.7-24.55-102.68.16-312.49,6.3-425.42,2.66-49.04,11.2-97.9,7.05-147.44-8.21-1.75-5.7.94-7.98,4.54-9.2,14.47-8.51,47.03-17.2,60.83-6.72,10.67-19.75,5.77-27.73,14.9-6.66,7.63-40.26,90.19-44.69,104.51-8.31,26.81-5.68,40.79-8.99,65.61-14.68,110.14-37.81,223.65-72.04,329.39-27.36,84.51-118.53,268.58-96.77,351.07,4.04,15.33,28.79,48.02,36.96,66.06,23.49,51.83,13.57,65.19,18.28,116.72,2.07,22.69,9.7,47.91,10.75,70.96.51,11.19-4.16,45.22-3.17,49.2,1.38,5.53,30.38,29.78,11.29,41.83-14.58,9.2-84.41-4.29-103.41-9.95-22.36-6.66-44.31-14.86-55.81-36.55-7.44-14.02-28.69-78.71-30.24-94.07-4.69-46.48,19.69-108.25,14.3-152.91-2.01-16.69-14.94-35.19-19.51-51.49-9.95-35.46,5.89-57.51,11.44-91.39,18.31-111.83-1.53-224.31,4.29-336.74,4.56-87.93,14.05-221.69,41.17-303.42,14.48-43.63,32.23-75.48,40.26-123.15,2.3-13.65,10.91-71.35,2.97-78.56-4.71-4.28-21.55-6.72-27.65-16.68-9.13-14.88,11.47-51.54,16.27-69.48,38.34-143.24,23.13-329.25,88.11-458.97,23.17-46.25,104.92-86.87,151.58-111.3,57.25-29.98,148.57-56.98,190.16-101.14,26.92-28.59,49.68-73.64,83.76-93.86,16.52-9.8,29.42-2.07,31.64-25.16,1.94-20.12-8.65-123.64-24.81-131.54-5.67-2.77-13.14-.67-18.65-2.66-24.68-8.92-36.38-46.46-44.29-69.39-5.13-14.86-17.87-53.41-17.69-67.18.23-18.17,21.11-14.45,22.95-24.5-1.58-27.7-13.78-51.86-19.57-78.74-5.78-26.85-10.42-46.68-.04-72.72,11.16-27.99,13.69-32.75,22.11-63.15,16.58-59.86,64.77-85.57,121.3-95.39,26.1-4.53,54.85-15.28,78.07-17.86,98.58-10.94,184.98,53.64,216.18,145.42,21.59,63.51,4.4,122.8-12.26,184.57l20.99-3.28c2.08,4.9,3.03,9.24,2.93,14.66-.32,16.57-18.92,105.8-25.67,120.12-11.67,24.77-34.39,17.19-40.03,31.02-5.46,32.17-15.93,63.82-21.28,95.95-1.6,9.62-7.66,48.06-6.45,54.44,2.43,12.88,18.64,8.24,27.68,11.35,31.05,10.69,63.28,96.64,91.77,117.81,88.99,53.42,190.2,96.4,276.59,153.25,58.54,38.52,83.06,122.87,98.72,189.03,24.82,104.84,31.73,213.26,58.06,318.5,3,12.01,19.02,45.54,10.55,53.59-7.04,6.68-35.79,9.71-38.7,18.14-.53,59.35,9,125.86,30.85,181.34,12.29,31.21,32.32,59.15,44.56,90.43,39.67,101.42,36.77,291.37,34.39,402.86-1.55,72.34-7.54,135.35,4.23,208.62,3.49,21.71,16.85,45.23,12.53,67.5-1.96,10.13-11.47,22.19-13.13,33.02-7.28,47.52,27.68,106.29,34.45,153.38,3.86,26.81-.29,92.88-6.46,119.73-5.82,25.32-60.16,43.11-82.67,59.42-7.26,5.26-17.17,12.95-23.85,18.78-7.53,6.58-10.18,23.77-23.23,12.89-17.12-14.28,8.37-38,14.28-50.26,3-6.22,22.67-48.67,23.12-51.48,3.74-23.18-1.46-118.75-42.34-88.51-17.21,12.73-7.25,23.53-7.04,38.82s2.55,118.46-34.98,97.06c-9.41-5.36-20.76-91.93-21.98-107.63-4.19-53.94-3.39-114.1,16.11-164.97,7.22-18.83,20.43-34.1,24.87-53.28,29.89-129.2-83.58-295.44-111.18-418.49-9.01-40.15-6.66-81.54-16.86-121.69-17.12-67.36-20.57-87.44-27.1-157.62-2.78-29.86-38.08-176.62-56.45-192.29-3.57-3.04-11.04-3.49-13.28-6.19-11.24-13.59-5.81-66.15-36.36-66.61-.61,8-5.67,16.5-6.42,24.13-2.23,22.73,4.31,79.25,6.41,105.49,9.44,117.63,47.51,339.66,13.02,446.5-2.46,7.61-12.75,20.2-12.9,26.03-.14,5.66,11.27,39.85,13.09,50.67,14.36,85.55,31.71,186.7,36.44,272.62,4.86,88.39-5.35,183.44-3.69,273.67.33,17.99,9.6,74.17,1.93,86.85-2.66,4.39-13.19,6.47-17.51,14.46-3.96,7.34-6.4,25.23-8.14,34.49-11.53,61.34-13.68,128.16-22.75,190.39-9.91,67.98-25.21,135.42-34.63,203.38-33.97,245.1,12.3,486.81-.71,731.09-33.06,172.16-89.91,337.86-141.82,504.73v99.47l5.83,5.02c15.79,4.84,38.86-25.66,51.31-22.95s12.54,22.33,13.97,23.3,7.97-3.27,11.79-2.64c4.21.7,11.8,8.34,16.94,11.27,3.88,2.21,10.75.98,13.11,2.68,2.79,2.01,2.44,10.78,4.94,14.74,7.48,11.82,7.66,16.8,11.75,23.64,2.52,4.22,10.59,2.84,12.53,12.41,11.49,56.69-69.73,97.69-106.42,124.58-16.54,12.12-34.55,35.06-52.8,43.12-25.05,11.06-109.13,13.51-131.96-.88-22.77-14.35-2.16-89.57-3.61-117.2-.94-17.95-2.21-42.79-3.77-59.83-1.31-14.29-13.79-39.39-13.59-53.77.2-14.42,15.97-47.89,19.84-64.82,39.49-172.97-9.82-346.07,8.49-517.27,12.34-115.37,54.07-222.69,34.28-340.66-7.2-42.93-25.52-87.42-33.83-129.59-19.33-98.19-4.47-220.45-7.85-322.53-3.84-115.99-19.03-232.2-28.62-347.92,1.15-9.1-13.18-10.74-14.23-15l-14.13,2.49ZM260.83,2786.6c-47.42-2.22-34.57,24.6-28.75,55.39,2.01,10.63-3.45,21.28,5.49,30.03,5.33,5.22,35.94,18.99,41.03,14-7.35-32.6-16.23-65.19-17.77-99.43Z"/>
    <path class="st2" d="M3109.9,4960.68c-5.75,9.31-76.9,8.64-90.6,7.12-39.38-4.39-29.98-23.1-44.97-47.39-6.73-10.91-26.07-23.14-27.85-36.38-1.03-7.63,8.28-36.63,12.23-44.35,5.69-11.1,24.68-24.43,26.36-30.78,2.35-8.91-6.7-45.75-6.82-59.47-.31-36.16,8.15-67.34,2.94-105.87-17.53-129.64-61.85-270.5-83.53-403.16-25.75-157.58-19.57-268.53-14.97-425.25,7.05-240.37-43.38-464.48-100.57-695.48-1.35-22.52-35.56-6.39-41.09-22.85-3.02-8.98.41-26.58-1.02-38.05-11.81-94.52-39.98-188.57-35.06-284.6,8-156.06,53.82-382.1,100.48-531.85,22.39-71.85,71.66-143.28,77.05-214.26,5.36-70.67-38.7-177.19-55.91-249.49-9.02-37.93-11.31-81.28-23.21-118.87-1.04-3.28-6.8-26.74-13.14-20.56-5.5,5.37-6.12,44.49-7.97,54.24-23.51,124.05-47.54,212.07-49.09,341.99-1.11,92.94-33.93,163.17-55.65,253.11-23.59,97.66-71.39,305.21-56.26,398.81,5,30.95,27.18,49.58,38.2,75.47,15.98,37.55,19.01,152.17,16.99,196.07-.51,11.04-7.95,32.75-6.28,41.83,1.97,10.7,46.38,43.81,16.83,54.42l-104.71-51.73c-3.99-4.17-46.6-98.14-47.65-105.1-7.14-47.23,11.15-96.67,7.03-142.02-2.16-23.69-17.66-48.86-18.02-71.08-.55-34.61,12.88-71.55,10.9-113.64-8.06-171.29-28.45-327.7,7.93-499.78,12.69-60.04,39.75-112.39,48.33-175.47,16.36-120.22,8.61-246.93,21.8-365.42,6.4-57.46,24.76-117.52,34.59-175.01,6.68-39.08-5.06-71.31,31.79-96.1,41.93-28.21,143.21-68.06,193.01-84.08,48.32-15.54,122.86-18.78,144.45-72.24,12.26-30.35,11.27-69.17.69-99.78-51.35,8.58-95.99,13.57-118.63-43-40.84-102.05-42.1-308.13,10.61-405.05,69.06-127,207.11-172.62,338.21-107.17,60.49,30.2,99.5,72.72,122.64,136.69,19.69,54.43-1.33,101.55-4.26,157.09-2.47,46.72-7.09,122.38-3.55,166.89,1.32,16.52,12.92,47.97,10.59,60.3-4.51,23.87-68.04,42.87-90.2,40.6-20.62-2.12-53.85-22.53-51.91,12.67,2.73,49.67,24.57,83.63,67.99,106.26,84.37,43.98,184.39,62.03,270.2,102.81,43.39,20.62,75.48,33.29,87.24,83.28,10.56,44.9,25.87,124.73,29.26,169.68,10.61,140.54-3.02,311.26,37.47,445.66,10.89,36.15,31.45,72.98,39.85,109.35,43.6,188.77-8.81,387.28.76,578.29.71,14.12,7.68,29.16,7.34,42.36-.41,15.99-10.68,30.33-13.5,43.6-12.86,60.4,7.36,129.61,9.72,190.71-19.52,23.68-32.24,89.94-48.09,108.39-13.47,15.68-47.28,26.26-68.93,51.86-17.93,21.2-11.93,38.65-49.84,30.12-.4-7.31-.39-14.3,1.68-21.44,3.46-11.94,27.81-31.93-1.69-28.31-6.83-21.24,31.05-37.01,32.14-48.08-16.47-35.42-1.61-74.07-3.58-110.13-2.65-48.42-17.95-89.99,2.11-139.74,11.1-27.53,35.96-42.22,40.1-73.57,3.35-25.36-3.79-88.67-6.84-116.89-17.34-160.38-62.04-318.7-91.99-476.4-10.78-56.76-5.21-112.47-11.42-169.75-9.48-87.33-37.13-173.72-59.99-258-9.15-1.47-5.5.94-7.4,5-7.35,15.79-14.83,53.11-19.96,72.4-18.78,70.59-46.72,170.06-53.88,240.98-10.44,103.39,50.96,194.9,80.23,291.92,56.55,187.43,115.04,470.12,93.37,663.22-6.06,53.99-19.73,107.49-22.79,162.02-20.47,18.71-29.59,19.95-40.06,48.67-43.52,119.35-84.67,306.34-100.1,432.77-23.82,195.13,12.73,392.26-7.57,585.69-15.65,149.01-66.41,299.32-98.49,445.03-13.61,61.8-14.23,75.52-8.47,138.05,3.22,34.98-8.75,48.94-12.93,78.56-5.49,38.98,20.71,26.39,38.31,45.27,4.91,5.26,18.26,35.98,17.69,42.46-1.45,16.39-24.43,21.69-33.54,34.2-8.15,11.19-8.51,31.88-19.85,36.99-18.91,8.52-79.47,7.52-99.25,0-42.83-16.3-17.19-58.82-25.83-91.4-3.61-13.62-25.47-29.67-27.71-46.87-3.9-29.92,11.26-31.96,14.17-50.09,2.62-16.29-2.11-36.41.41-52.88,2.5-16.36,16.09-42.31,20.2-61.51,25.34-118.55-9.2-286.77-13.46-411.04-3.85-112.45,20.64-222.98,14.51-337.78-3.33-62.25-24.37-125.85-28.72-184.43-8.8-118.58,23.45-240.6,28.72-358.8,3.89-87.38,1.49-177.05-10.51-263.34-5.74-7.64-42.55-3.25-45.77,8.12l-14.88,148.53c-9.68,151.75,40.59,315.95,28.51,465.46-4.56,56.49-25.43,116.77-28.69,177.35-4.54,84.17,10.28,156.97,14.32,238.2,7.81,157.08-38.89,323.57-32.11,476.16,2.94,66.17,45.12,134.37,39.42,191.84-2.24,22.58-28.6,47.84-28.6,56.66v90.59ZM2626.58,2875.56l-13.48.35c-4.02,2.41-1.71,41.14-.66,47.55,1.76,10.76,7.28,33.84,21.41,30.07l-7.28-77.96ZM3685.4,2937.55c2.53-11.55,0-39.28,0-53.29,0-1.89-7.75-7.34-10.62-5.31-4.7,10.67-2.18,22.5-4.42,32.9-2.84,13.2-12.79,35.32-13.51,46.94-.34,5.55-.47,6.2,5.38,5.34,6.66-1.88,21.87-20.67,23.17-26.59Z"/>
  </g>
</svg>